<?xml version="1.0" encoding="utf-8"?>
<!-- Generator: Adobe Illustrator 15.1.0, SVG Export Plug-In . SVG Version: 6.00 Build 0)  -->
<!DOCTYPE svg PUBLIC "-//W3C//DTD SVG 1.1//EN" "http://www.w3.org/Graphics/SVG/1.1/DTD/svg11.dtd">
<svg version="1.1" id="Layer_1" xmlns="http://www.w3.org/2000/svg" xmlns:xlink="http://www.w3.org/1999/xlink" x="0px" y="0px"
	 width="637.649px" height="174.818px" viewBox="0 0 637.649 174.818" enable-background="new 0 0 637.649 174.818"
	 xml:space="preserve">
<g>
	<path fill="#1B3663" d="M56.661,59.94c0.699-0.031,1.383-0.046,2.083-0.046c1.78,0,3.546,0.111,5.279,0.333
		c9.446-11.019,15.17-25.347,15.17-41.011c0-2.814-0.19-5.583-0.541-8.302C68.476,24.033,60.477,40.03,56.661,59.94"/>
	<path fill="none" stroke="#1B3663" stroke-width="0.5" stroke-miterlimit="10" d="M56.661,59.94
		c0.699-0.031,1.383-0.046,2.083-0.046c1.78,0,3.546,0.111,5.279,0.333c9.446-11.019,15.17-25.347,15.17-41.011
		c0-2.814-0.19-5.583-0.541-8.302C68.476,24.033,60.477,40.03,56.661,59.94z"/>
	<path fill="#1B3663" d="M110.807,122.229c-0.698,0.031-1.383,0.048-2.083,0.048c-1.78,0-3.546-0.11-5.279-0.332
		c-9.461,11.019-15.17,25.349-15.17,41.013c0,2.814,0.191,5.58,0.541,8.298C98.482,158.059,108.486,142.045,110.807,122.229"/>
	<path fill="none" stroke="#1B3663" stroke-width="0.5" stroke-miterlimit="10" d="M110.807,122.229
		c-0.698,0.031-1.383,0.048-2.083,0.048c-1.78,0-3.546-0.11-5.279-0.332c-9.461,11.019-15.17,25.349-15.17,41.013
		c0,2.814,0.191,5.58,0.541,8.298C98.482,158.059,108.486,142.045,110.807,122.229z"/>
	<path fill="#1B3663" d="M52.59,118.159c-0.033-0.683-0.049-1.383-0.049-2.083c0-1.782,0.113-3.546,0.334-5.279
		c-11.021-9.463-25.348-15.172-41.012-15.172c-2.814,0-5.581,0.19-8.3,0.541C18.479,108.045,32.474,114.041,52.59,118.159"/>
	<path fill="none" stroke="#1B3663" stroke-width="0.5" stroke-miterlimit="10" d="M52.59,118.159
		c-0.033-0.683-0.049-1.383-0.049-2.083c0-1.782,0.113-3.546,0.334-5.279c-11.021-9.463-25.348-15.172-41.012-15.172
		c-2.814,0-5.581,0.19-8.3,0.541C18.479,108.045,32.474,114.041,52.59,118.159z"/>
	<path fill="#1B3663" d="M114.878,64.011c0.033,0.7,0.048,1.383,0.048,2.083c0,1.782-0.111,3.546-0.334,5.279
		c11.021,9.463,25.349,15.171,41.013,15.171c2.814,0,5.581-0.19,8.3-0.541C150.5,74.046,134.486,68.034,114.878,64.011"/>
	<path fill="none" stroke="#1B3663" stroke-width="0.5" stroke-miterlimit="10" d="M114.878,64.011
		c0.033,0.7,0.048,1.383,0.048,2.083c0,1.782-0.111,3.546-0.334,5.279c11.021,9.463,25.349,15.171,41.013,15.171
		c2.814,0,5.581-0.19,8.3-0.541C150.5,74.046,134.486,68.034,114.878,64.011z"/>
	<g>
		<g>
			<defs>
				<path id="SVGID_1_" d="M83.949,19.198c0,15.872-5.454,30.485-14.598,42.03c-1.035,1.289-2.116,2.544-3.229,3.754
					c-3.69-0.621-7.458-0.986-11.307-0.986C32.283,63.996,12.324,74.983,0,91.904c3.849-0.685,7.825-1.035,11.879-1.035
					c15.872,0,30.485,5.456,42.03,14.6c1.29,1.016,2.544,2.114,3.754,3.228c-0.621,3.691-0.986,7.459-0.986,11.307
					c0,22.534,11.004,42.492,27.909,54.815c-0.685-3.848-1.035-7.823-1.035-11.879c0-15.886,5.456-30.485,14.6-42.028
					c1.017-1.289,2.114-2.53,3.227-3.754c3.69,0.62,7.459,0.971,11.307,0.971c22.534,0,42.491-10.988,54.815-27.91
					c-3.865,0.685-7.823,1.035-11.879,1.035c-15.87,0-30.484-5.454-42.03-14.598c-1.303-1.019-2.544-2.116-3.752-3.229
					c0.621-3.689,0.986-7.458,0.986-11.307c0-22.534-11.005-42.491-27.908-54.815C83.583,11.184,83.949,15.144,83.949,19.198"/>
			</defs>
			<clipPath id="SVGID_2_">
				<use xlink:href="#SVGID_1_"  overflow="visible"/>
			</clipPath>
			
				<linearGradient id="SVGID_3_" gradientUnits="userSpaceOnUse" x1="-0.8608" y1="-260.0977" x2="2.8935" y2="-260.0977" gradientTransform="matrix(13.501 34.8989 -34.8989 13.501 -9025.1836 3520.4836)">
				<stop  offset="0" style="stop-color:#2BBDE0"/>
				<stop  offset="0.517" style="stop-color:#2BBDE0"/>
				<stop  offset="1" style="stop-color:#45BFB4"/>
			</linearGradient>
			<polygon clip-path="url(#SVGID_2_)" fill="url(#SVGID_3_)" points="145.681,-49.038 223.856,153.033 21.787,231.207 
				-56.389,29.137 			"/>
		</g>
	</g>
	<polygon fill="#1B3663" points="181.842,64.075 195.789,64.075 209.385,97.629 222.839,64.075 236.721,64.075 236.721,112.53 
		224.907,112.53 224.907,83.476 214.076,112.53 204.551,112.53 193.643,83.396 193.643,112.53 181.842,112.53 	"/>
	<polygon fill="#1B3663" points="283.14,73.537 265.266,73.537 265.266,83.332 281.073,83.332 281.073,92.445 265.266,92.445 
		265.266,103.067 283.14,103.067 283.14,112.53 253.467,112.53 253.467,64.075 283.14,64.075 	"/>
	<path fill="#1B3663" d="M342.629,88.294c0,14.36-9.938,24.236-25.395,24.236h-18.162V64.075h18.162
		C332.692,64.075,342.629,73.871,342.629,88.294 M316.471,102.318c8.906,0,14.154-5.103,14.154-14.009
		c0-8.905-5.248-14.153-14.154-14.153h-5.598v28.162H316.471z"/>
	<rect x="357.514" y="64.075" fill="#1B3663" width="11.799" height="48.455"/>
	<g>
		<g>
			<defs>
				<path id="SVGID_4_" d="M384.915,77.672c-0.143,17.19,24.09,12.355,24.09,21.326c0,2.828-2.207,4.547-5.66,4.547
					c-3.307,0-5.66-1.799-6.01-5.518h-12.563c0.352,9.795,8.49,14.978,18.906,14.978c11.324,0,17.666-6.756,17.666-14.898
					c0-16.222-23.947-12.421-23.947-20.849c0-3.036,2.148-4.483,4.977-4.419c3.184,0.078,5.377,1.939,5.584,5.04h12.77
					c-0.477-9.239-7.586-14.487-18.145-14.487C392.436,63.391,384.915,68.497,384.915,77.672"/>
			</defs>
			<clipPath id="SVGID_5_">
				<use xlink:href="#SVGID_4_"  overflow="visible"/>
			</clipPath>
			
				<linearGradient id="SVGID_6_" gradientUnits="userSpaceOnUse" x1="4.0928" y1="-268.1064" x2="8.1957" y2="-268.1064" gradientTransform="matrix(38.891 -18.0227 18.0227 38.891 5065.1406 10593.874)">
				<stop  offset="0" style="stop-color:#2BBDE0"/>
				<stop  offset="0.2516" style="stop-color:#2BBDE0"/>
				<stop  offset="1" style="stop-color:#45BFB4"/>
			</linearGradient>
			<polygon clip-path="url(#SVGID_5_)" fill="url(#SVGID_6_)" points="365.833,72.153 414.891,49.429 440.284,104.245 
				391.245,126.967 			"/>
		</g>
	</g>
	<g>
		<g>
			<defs>
				<path id="SVGID_7_" d="M457.987,77.115l6.01,17.729h-11.943L457.987,77.115z M451.227,64.075l-17.525,48.455h12.357l2.908-8.555
					h18.084l2.895,8.555h12.498l-17.525-48.455H451.227z"/>
			</defs>
			<clipPath id="SVGID_8_">
				<use xlink:href="#SVGID_7_"  overflow="visible"/>
			</clipPath>
			
				<linearGradient id="SVGID_9_" gradientUnits="userSpaceOnUse" x1="4.0928" y1="-267.7178" x2="8.1937" y2="-267.7178" gradientTransform="matrix(38.891 -18.0227 18.0227 38.891 5067.8906 10599.8428)">
				<stop  offset="0" style="stop-color:#2BBDE0"/>
				<stop  offset="0.2516" style="stop-color:#2BBDE0"/>
				<stop  offset="1" style="stop-color:#45BFB4"/>
			</linearGradient>
			<polygon clip-path="url(#SVGID_8_)" fill="url(#SVGID_9_)" points="415.209,72.646 473.809,45.486 500.905,103.958 
				442.305,131.119 			"/>
		</g>
	</g>
	<g>
		<g>
			<defs>
				<polygon id="SVGID_10_" points="495.991,64.075 495.991,112.53 523.262,112.53 523.262,103.417 507.793,103.417 507.793,64.075 
									"/>
			</defs>
			<clipPath id="SVGID_11_">
				<use xlink:href="#SVGID_10_"  overflow="visible"/>
			</clipPath>
			
				<linearGradient id="SVGID_12_" gradientUnits="userSpaceOnUse" x1="4.0913" y1="-267.3145" x2="8.1911" y2="-267.3145" gradientTransform="matrix(38.891 -18.0227 18.0227 38.891 5069.7344 10603.8271)">
				<stop  offset="0" style="stop-color:#2BBDE0"/>
				<stop  offset="0.2516" style="stop-color:#2BBDE0"/>
				<stop  offset="1" style="stop-color:#45BFB4"/>
			</linearGradient>
			<polygon clip-path="url(#SVGID_11_)" fill="url(#SVGID_12_)" points="477.512,72.646 518.444,53.675 541.741,103.958 
				500.811,122.929 			"/>
		</g>
	</g>
	<g>
		<g>
			<defs>
				<path id="SVGID_13_" d="M565.77,64.075v28.99c0,5.725-2.971,9.049-8.555,9.049c-5.582,0-8.414-3.308-8.414-9.049v-28.99h-11.799
					v28.926c0,13.391,8.764,20.021,20.021,20.021c11.178,0,20.563-6.631,20.563-20.021V64.075H565.77z"/>
			</defs>
			<clipPath id="SVGID_14_">
				<use xlink:href="#SVGID_13_"  overflow="visible"/>
			</clipPath>
			
				<linearGradient id="SVGID_15_" gradientUnits="userSpaceOnUse" x1="4.0884" y1="-266.9395" x2="8.1915" y2="-266.9395" gradientTransform="matrix(38.891 -18.0227 18.0227 38.891 5071.4844 10607.6084)">
				<stop  offset="0" style="stop-color:#2BBDE0"/>
				<stop  offset="0.2516" style="stop-color:#2BBDE0"/>
				<stop  offset="1" style="stop-color:#45BFB4"/>
			</linearGradient>
			<polygon clip-path="url(#SVGID_14_)" fill="url(#SVGID_15_)" points="518.321,72.725 570.401,48.602 596.241,104.356 
				544.161,128.495 			"/>
		</g>
	</g>
	<g>
		<g>
			<defs>
				<path id="SVGID_16_" d="M605.909,74.157h5.598c8.904,0,14.152,5.248,14.152,14.153c0,8.906-5.248,14.009-14.152,14.009h-5.598
					V74.157z M594.11,64.075v48.455h18.145c15.457,0,25.395-9.876,25.395-24.236c0-14.423-9.938-24.219-25.395-24.219H594.11z"/>
			</defs>
			<clipPath id="SVGID_17_">
				<use xlink:href="#SVGID_16_"  overflow="visible"/>
			</clipPath>
			
				<linearGradient id="SVGID_18_" gradientUnits="userSpaceOnUse" x1="4.0918" y1="-266.5049" x2="8.1923" y2="-266.5049" gradientTransform="matrix(38.891 -18.0227 18.0227 38.891 5073.9219 10612.8584)">
				<stop  offset="0" style="stop-color:#2BBDE0"/>
				<stop  offset="0.2516" style="stop-color:#2BBDE0"/>
				<stop  offset="1" style="stop-color:#45BFB4"/>
			</linearGradient>
			<polygon clip-path="url(#SVGID_17_)" fill="url(#SVGID_18_)" points="575.631,72.646 629.967,47.457 656.145,103.958 
				601.821,129.146 			"/>
		</g>
	</g>
	<g opacity="0.43">
		<g>
			<g>
				<defs>
					<rect id="SVGID_19_" x="433.653" y="119.639" width="200.051" height="37.592"/>
				</defs>
				<clipPath id="SVGID_20_">
					<use xlink:href="#SVGID_19_"  overflow="visible"/>
				</clipPath>
				<g clip-path="url(#SVGID_20_)">
					<path fill="#020202" d="M443.608,123.31c4.313,0,7.553,2.42,8.59,6.347h-4.852c-0.746-1.542-2.115-2.322-3.783-2.322
						c-2.703,0-4.564,2.004-4.564,5.199c0,3.196,1.861,5.199,4.564,5.199c1.668,0,3.037-0.776,3.783-2.318h4.852
						c-1.037,3.91-4.277,6.312-8.59,6.312c-5.326,0-9.094-3.785-9.094-9.192S438.268,123.31,443.608,123.31z"/>
					<path fill="#020202" d="M469.084,141.598h-4.404v-1.955c-0.873,1.241-2.416,2.114-4.357,2.114
						c-3.324,0-5.566-2.291-5.566-6.139v-8.395h4.375v7.806c0,1.958,1.111,3.04,2.752,3.04c1.701,0,2.783-1.082,2.783-3.04v-7.806
						h4.402v14.374H469.084z"/>
					<path fill="#020202" d="M471.852,123.358c0-1.335,1.049-2.402,2.623-2.402c1.543,0,2.611,1.067,2.611,2.402
						c0,1.32-1.051,2.371-2.611,2.371C472.901,125.729,471.852,124.679,471.852,123.358z M472.264,127.224h4.406v14.374h-4.406
						V127.224z"/>
					<path fill="#020202" d="M485.321,127.016c1.91,0,3.564,0.877,4.438,2.193v-6.679h4.406v19.067h-4.406v-2.065
						c-0.795,1.32-2.322,2.273-4.438,2.273c-3.527,0-6.342-2.895-6.342-7.428C478.993,129.847,481.793,127.016,485.321,127.016z
						 M486.61,130.849c-1.652,0-3.15,1.241-3.15,3.529c0,2.291,1.498,3.58,3.15,3.58c1.668,0,3.148-1.258,3.148-3.563
						C489.758,132.09,488.295,130.849,486.61,130.849z"/>
					<path fill="#020202" d="M502.829,127.016c2.133,0,3.658,0.987,4.438,2.242v-2.034h4.406v14.374h-4.406v-2.035
						c-0.793,1.255-2.322,2.243-4.451,2.243c-3.5,0-6.314-2.895-6.314-7.428C496.487,129.847,499.301,127.016,502.829,127.016z
						 M504.12,130.849c-1.654,0-3.152,1.241-3.152,3.529c0,2.291,1.498,3.58,3.152,3.58c1.67,0,3.146-1.258,3.146-3.563
						C507.266,132.09,505.79,130.849,504.12,130.849z"/>
					<path fill="#020202" d="M534.68,133.792c0-1.879-1.082-2.912-2.748-2.912c-1.672,0-2.752,1.033-2.752,2.912v7.806h-4.375
						v-7.806c0-1.879-1.082-2.912-2.748-2.912c-1.672,0-2.752,1.033-2.752,2.912v7.806h-4.406v-14.374h4.406v1.795
						c0.859-1.161,2.322-1.955,4.197-1.955c2.162,0,3.912,0.953,4.896,2.687c0.957-1.525,2.752-2.687,4.854-2.687
						c3.561,0,5.852,2.274,5.852,6.139v8.396h-4.375v-7.806H534.68z"/>
					<path fill="#020202" d="M548.692,141.806c-4.23,0-7.426-2.832-7.426-7.394c0-4.565,3.275-7.396,7.473-7.396
						c4.23,0,7.475,2.831,7.475,7.396C556.213,138.974,552.922,141.806,548.692,141.806z M548.692,137.989
						c1.572,0,3.039-1.161,3.039-3.577c0-2.45-1.449-3.581-2.992-3.581c-1.604,0-2.99,1.131-2.99,3.581
						C545.766,136.828,547.1,137.989,548.692,137.989z"/>
					<path fill="#020202" d="M564.42,141.806c-3.834,0-6.426-2.146-6.617-4.929h4.357c0.111,1.001,1.002,1.667,2.211,1.667
						c1.131,0,1.734-0.506,1.734-1.161c0-2.319-7.842-0.635-7.842-5.931c0-2.447,2.084-4.451,5.852-4.451
						c3.705,0,5.775,2.066,6.059,4.898h-4.068c-0.129-0.988-0.875-1.622-2.115-1.622c-1.037,0-1.607,0.412-1.607,1.112
						c0,2.288,7.777,0.669,7.857,6.027C570.241,139.931,568.03,141.806,564.42,141.806z"/>
					<path fill="#020202" d="M583.866,127.016c1.91,0,3.564,0.877,4.438,2.193v-6.679h4.406v19.067h-4.406v-2.065
						c-0.793,1.32-2.318,2.273-4.438,2.273c-3.527,0-6.342-2.895-6.342-7.428C577.538,129.847,580.338,127.016,583.866,127.016z
						 M585.155,130.849c-1.652,0-3.146,1.241-3.146,3.529c0,2.291,1.494,3.58,3.146,3.58c1.672,0,3.148-1.258,3.148-3.563
						C588.303,132.09,586.84,130.849,585.155,130.849z"/>
					<path fill="#020202" d="M602.299,141.806c-4.232,0-7.268-2.832-7.268-7.394c0-4.565,2.986-7.396,7.268-7.396
						c4.197,0,7.154,2.783,7.154,7.157c0,0.412-0.031,0.856-0.08,1.286h-9.969c0.16,1.879,1.318,2.752,2.736,2.752
						c1.24,0,1.938-0.62,2.287-1.383h4.693C608.434,139.643,605.877,141.806,602.299,141.806z M599.436,133.025h5.52
						c0-1.573-1.242-2.479-2.705-2.479C600.803,130.547,599.69,131.421,599.436,133.025z"/>
					<path fill="#020202" d="M617.946,130.88h-1.75v-3.656h1.75v-3.498h4.406v3.498h2.877v3.656h-2.877v5.771
						c0,0.859,0.363,1.21,1.334,1.21h1.574v3.736h-2.242c-2.988,0-5.072-1.255-5.072-4.991V130.88L617.946,130.88z"/>
					<path fill="#020202" d="M627.297,123.358c0-1.335,1.047-2.402,2.625-2.402c1.543,0,2.605,1.067,2.605,2.402
						c0,1.32-1.049,2.371-2.605,2.371C628.344,125.729,627.297,124.679,627.297,123.358z M627.711,127.224h4.404v14.374h-4.404
						V127.224z"/>
				</g>
			</g>
		</g>
	</g>
</g>
</svg>
